# xmcd CD database file generated by OrangeCD 6.4
#
# Track frame offsets:
#	150
#	14523
#	29185
#	42466
#	56181
#	69820
#	82732
#	94841
#	116669
#	127794
#	144590
#	158457
#	170925
#	184488
#	201273
#	213711
#	231689
#	245943
#	258968
#	272607
#
# Disc length: 3862 seconds
#
# Revision: 0
# Processed by: cddbd v1.5.2PL0 Copyright (c) Steve Scherf et al.
# Submitted via: OrangeCD 6.4
#
DISCID=340f1414
DTITLE=Various Artist - Deep South: The Story Of The Blues
DYEAR=2012
DGENRE=Blues
TTITLE0=Pine Top Smith - Pine Top's Boogie Woogie
TTITLE1=Wesley Wallace - No 29
TTITLE2=Peetie Wheatstraw - These Times
TTITLE3=Roosevelt Sykes - Soft And Mellow
TTITLE4=Jesse James - Lonesome Day Blues
TTITLE5=Honey Hill - Boogie Woogie
TTITLE6=Honey Hill - Set 'Em
TTITLE7=Meade Lux Lewis, Albert Ammons, Pete Johnson - Boogie Woogie Player, Pa
TTITLE7=rt 1 and 2
TTITLE8=Albert Ammons - Shout For Joy
TTITLE9=Albert Ammons - Boogie Woogie Blues
TTITLE10=Pete Johnson - Let 'Em Jump
TTITLE11=Pete Johnson - Boogie Woogie
TTITLE12=Cripple Clarence Lofton - I Don't Know
TTITLE13=Meade Lux Lewis - Rising Tide Blues
TTITLE14=Pete Johnson, Albert Ammons - Boogie Woogie Jump
TTITLE15=Jimmy Yancey - How Long Blues
TTITLE16=Memphis Slim - Blue And Lonesome
TTITLE17=Professor Longhair - Mardi Gras In New Orleans
TTITLE18=Memphis Slim - St. Louis Boogie
TTITLE19=Memphis Slim - Chicago Rent Party Blues
EXTD=
EXTT0=
EXTT1=
EXTT2=
EXTT3=
EXTT4=
EXTT5=
EXTT6=
EXTT7=
EXTT8=
EXTT9=
EXTT10=
EXTT11=
EXTT12=
EXTT13=
EXTT14=
EXTT15=
EXTT16=
EXTT17=
EXTT18=
EXTT19=
PLAYORDER=
